<svg width="354" height="263" viewBox="0 0 354 263" fill="none" xmlns="http://www.w3.org/2000/svg"><path d="M.568 168v-67.68H33.88c8 0 14.176 1.92 18.528 5.76 4.352 3.84 6.528 9.152 6.528 15.936 0 4.48-.992 8.352-2.976 11.616-1.92 3.2-4.768 5.696-8.544 7.488-3.776 1.728-8.352 2.592-13.728 2.592l.672-2.784h5.664c2.816 0 5.344.832 7.584 2.496 2.24 1.6 4.096 3.712 5.568 6.336L63.64 168H40.888l-11.616-21.312c-.512-.96-1.344-1.632-2.496-2.016a9.72 9.72 0 0 0-3.552-.672h-1.92v24H.568Zm20.736-38.496h8.832c2.944 0 5.184-.544 6.72-1.632 1.536-1.152 2.304-2.88 2.304-5.184 0-2.24-.768-3.904-2.304-4.992-1.536-1.088-3.776-1.632-6.72-1.632h-8.832v13.44ZM69.662 168v-67.68h34.944c8 0 14.016 1.984 18.048 5.952 4.032 3.904 6.048 9.184 6.048 15.84 0 6.592-2.016 11.872-6.048 15.84s-10.048 5.952-18.048 5.952H90.398V168H69.662Zm20.736-39.84h11.424c2.432 0 4.224-.512 5.376-1.536 1.152-1.088 1.728-2.592 1.728-4.512 0-1.92-.576-3.392-1.728-4.416-1.152-1.088-2.944-1.632-5.376-1.632H90.398v12.096Zm81.344 40.992c-7.552 0-14.112-1.44-19.68-4.32-5.504-2.944-9.792-7.04-12.864-12.288-3.008-5.248-4.512-11.392-4.512-18.432 0-7.04 1.504-13.152 4.512-18.336 3.072-5.248 7.36-9.312 12.864-12.192 5.568-2.944 12.128-4.416 19.68-4.416 4.608 0 8.832.608 12.672 1.824 3.904 1.152 7.136 2.816 9.696 4.992l-6.048 16.224c-2.88-1.92-5.472-3.232-7.776-3.936-2.304-.768-4.896-1.152-7.776-1.152-5.184 0-9.184 1.472-12 4.416-2.752 2.88-4.128 7.072-4.128 12.576 0 5.568 1.376 9.824 4.128 12.768 2.816 2.88 6.816 4.32 12 4.32 2.88 0 5.472-.352 7.776-1.056 2.304-.768 4.896-2.112 7.776-4.032l6.048 16.224c-2.56 2.176-5.792 3.872-9.696 5.088-3.84 1.152-8.064 1.728-12.672 1.728Zm26.451-20.064v-15.36h32.64v15.36h-32.64ZM252.361 168v-50.976h-19.584V100.32h59.904v16.704h-19.584V168h-20.736Zm71.609 1.152c-5.504 0-10.816-.64-15.936-1.92-5.056-1.28-9.248-3.008-12.576-5.184l5.664-15.936c2.048 1.216 4.352 2.304 6.912 3.264a63.424 63.424 0 0 0 7.968 2.208 44.54 44.54 0 0 0 8.16.768c3.776 0 6.304-.384 7.584-1.152 1.28-.832 1.92-1.824 1.92-2.976 0-1.088-.416-1.952-1.248-2.592-.768-.64-2.4-1.216-4.896-1.728l-12.192-2.496c-6.208-1.28-10.88-3.552-14.016-6.816-3.072-3.264-4.608-7.488-4.608-12.672 0-4.608 1.248-8.608 3.744-12 2.496-3.392 6.016-6.016 10.56-7.872 4.544-1.92 9.856-2.88 15.936-2.88 4.8 0 9.344.64 13.632 1.92 4.288 1.28 7.776 3.008 10.464 5.184l-5.664 14.976c-2.432-1.664-5.248-2.944-8.448-3.84-3.136-.96-6.624-1.44-10.464-1.44-3.2 0-5.6.384-7.2 1.152-1.536.768-2.304 1.888-2.304 3.36 0 .896.448 1.728 1.344 2.496.896.768 2.624 1.408 5.184 1.92l12 2.4c6.08 1.216 10.656 3.456 13.728 6.72 3.136 3.264 4.704 7.456 4.704 12.576 0 4.544-1.248 8.512-3.744 11.904-2.496 3.392-5.984 6.016-10.464 7.872-4.48 1.856-9.728 2.784-15.744 2.784Z" fill="#000"/><path fill-rule="evenodd" clip-rule="evenodd" d="M293.539 191H59.425l34.327 59.672A24.511 24.511 0 0 0 115.018 263h122.928a24.51 24.51 0 0 0 21.266-12.328L293.539 191ZM259.253 12.328 293.58 72H59.425l34.327-59.672A24.51 24.51 0 0 1 115.018 0h122.928c8.769 0 16.882 4.685 21.307 12.328Z" fill="url(#a)"/><defs><radialGradient id="a" cx="0" cy="0" r="1" gradientUnits="userSpaceOnUse" gradientTransform="matrix(295.101 0 0 295.951 250.922 259.575)"><stop stop-color="#EC991C"/><stop offset="1" stop-color="#E9B213"/></radialGradient></defs></svg>
