<svg width="166" height="223" viewBox="0 0 166 223" fill="none" xmlns="http://www.w3.org/2000/svg"><rect x="85" width="81" height="115" rx="2" fill="#DDD"/><rect x="99" y="132" width="53" height="75" rx="2" fill="#DDD"/><rect y="115" width="76" height="108" rx="2" fill="#DDD"/><rect x="2" y="10" width="29" height="41" rx="2" fill="#DDD"/><rect x="17" y="25" width="118" height="167" rx="2" fill="#fff"/><g clip-path="url(#a)"><path d="M93.431 51.049c.99 1.234 1.494 2.899 2.504 6.229l22.051 72.747a91.484 91.484 0 0 0-26.363-8.964L77.265 72.336a1.864 1.864 0 0 0-3.585.006l-14.184 48.695a91.495 91.495 0 0 0-26.482 8.976l22.16-72.752c1.012-3.324 1.518-4.986 2.508-6.218a8.148 8.148 0 0 1 3.301-2.453c1.463-.59 3.194-.59 6.655-.59h15.827c3.466 0 5.2 0 6.663.591a8.15 8.15 0 0 1 3.303 2.458Z" fill="#000"/><path d="M96.07 133.486c-3.635 3.122-10.891 5.251-19.249 5.251-10.258 0-18.855-3.207-21.137-7.52-.816 2.471-.998 5.301-.998 7.108 0 0-.538 8.874 5.608 15.046 0-3.205 2.588-5.803 5.78-5.803 5.47 0 5.463 4.793 5.458 8.681v.347a14.176 14.176 0 0 0 8.7 13.093 11.931 11.931 0 0 1-1.192-5.215c0-5.629 3.29-7.725 7.115-10.16 3.043-1.938 6.424-4.092 8.753-8.411a15.917 15.917 0 0 0 1.906-7.578c0-1.687-.26-3.313-.744-4.839Z" fill="#FF5D01"/></g><defs><clipPath id="a"><path fill="#F8F8F8" d="M33 48h85v122H33z"/></clipPath></defs></svg>
