<svg width="27" height="22" viewBox="0 0 27 22" fill="none" xmlns="http://www.w3.org/2000/svg"><path fill-rule="evenodd" clip-rule="evenodd" d="M19 20.625a.521.521 0 0 1-.018-.163L20.005.006 14.08 1.373a1.03 1.03 0 0 1-.481-.004L8.182.015l.511 20.46a.522.522 0 0 1-.018.15l4.892 1.334c.177.049.365.049.542 0L19 20.625ZM21.05.055l-1.023 20.459a.531.531 0 0 1-.015.1l4.46 1.116a1.03 1.03 0 0 0 1.279-.947l.925-18.056a1.03 1.03 0 0 0-.703-1.03L21.05.054ZM1.727 1.708 7.137.044l.512 20.458c0 .039.006.077.015.113L3.205 21.73a1.03 1.03 0 0 1-1.279-.947L1.001 2.746a1.03 1.03 0 0 1 .726-1.038Z" fill="url(#a)"/><path d="m22.207 8.574-4.371 4.371m4.37 0-4.37-4.37" stroke="#fff" stroke-width="2.09" stroke-linecap="round"/><path d="m1.477 13.278 6.445-2.641h6.824" stroke="#fff" stroke-width="2.09" stroke-linecap="round" stroke-dasharray="12.01 12.01"/><defs><radialGradient id="a" cx="0" cy="0" r="1" gradientUnits="userSpaceOnUse" gradientTransform="matrix(-25.6769 0 0 -21.9899 26.677 21.996)"><stop stop-color="#EC991C"/><stop offset="1" stop-color="#E9B213"/></radialGradient></defs></svg>
