<svg width="346" height="431" viewBox="0 0 346 431" fill="none" xmlns="http://www.w3.org/2000/svg"><mask id="a" fill="#fff"><path fill-rule="evenodd" clip-rule="evenodd" d="M168.896.22c-6.727 1.483-11.875 6.22-13.92 12.812-.58 1.872-.69 2.862-.675 6.105.015 3.475.099 4.08.819 5.915 1.677 4.27 4.607 7.708 8.534 10.01 2.613 1.532 5.403 2.338 8.911 2.575 3.869.26 5.744.977 7.654 2.924.879.897 3.431 4.607 6.163 8.963 2.564 4.088 6.111 9.711 7.88 12.495 1.77 2.785 5.107 8.044 7.416 11.688 2.308 3.645 9.023 14.231 14.921 23.526a156580.594 156580.594 0 0 1 20.643 32.534 31042.993 31042.993 0 0 1 16.054 25.313c1.503 2.375 4.521 7.132 6.707 10.571 16.917 26.621 18.488 29.171 18.488 29.996.001.535-.251.977-.736 1.295-.837.547 1.32 1.188-41.61-12.38-5.823-1.84-13.271-4.189-16.552-5.218-16.079-5.045-22.437-7.097-23.182-7.478-2.385-1.223-3.931-3.355-5.162-7.121-1.11-3.398-2.313-5.338-4.883-7.878-3.786-3.742-7.936-5.491-12.996-5.48-8.881.021-15.84 5.025-18.385 13.222-1.024 3.299-.973 8.475.116 11.614 1.152 3.324 2.181 4.966 4.681 7.476 3.898 3.913 8.195 5.489 14.333 5.258 2.94-.111 3.761-.26 5.749-1.043 1.298-.51 3.439-1.725 4.86-2.756 3.199-2.321 5.288-3.1 7.732-2.885.984.087 3.936.846 6.56 1.689 2.625.842 8.328 2.647 12.675 4.011a8090.153 8090.153 0 0 1 16.103 5.075c11.955 3.785 25.025 7.905 33.671 10.614 8.215 2.573 8.741 2.786 10.324 4.174 1.398 1.225 2.343 2.886 3.286 5.773 1.105 3.38 2.311 5.327 4.887 7.892 2.424 2.412 5.047 3.987 8.222 4.934 2.704.808 7.414.741 10.281-.146 6.568-2.032 10.549-5.82 12.712-12.097.717-2.081.821-2.835.823-5.956.002-3.076-.109-3.906-.791-5.956-1.667-5.008-5.009-8.972-9.269-10.99-2.599-1.232-3.855-1.545-8.51-2.122-5.844-.724-6.944-1.57-11.602-8.925-1.452-2.293-4.384-6.916-6.515-10.274a30033.396 30033.396 0 0 1-17.935-28.29 4546.584 4546.584 0 0 0-6.707-10.572c-.733-1.146-3.542-5.568-6.241-9.827a120732.265 120732.265 0 0 0-30.21-47.647 12973.999 12973.999 0 0 0-14.458-22.78c-10.814-16.961-10.509-16.397-10.492-19.475.01-1.764.223-2.661 1.285-5.392 1.265-3.256 1.273-3.298 1.271-7.147-.002-3.453-.09-4.128-.826-6.25-2.026-5.844-5.873-9.725-11.696-11.798-1.973-.703-8.248-1.047-10.408-.57Zm-48.505 75.807c-3.776.915-7.881 3.557-10.172 6.548-1.515 1.977-3.087 5.213-3.682 7.578-.358 1.427-.451 2.821-.355 5.36.12 3.165.222 3.653 1.302 6.262 1.07 2.582 1.172 3.063 1.167 5.509-.006 3.095-.051 3.202-3.703 8.898a3114.285 3114.285 0 0 0-7.03 11.054c-2.595 4.095-6.418 10.125-8.497 13.401a42289.56 42289.56 0 0 0-8.5 13.401c-2.596 4.094-6.108 9.625-7.805 12.29-1.697 2.665-3.242 5.434-3.435 6.153-1.123 4.194 3.545 7.848 7.47 5.848.62-.315 1.287-.766 1.483-1.001.34-.411 7.664-11.885 16.005-25.077 2.174-3.44 5.486-8.666 7.359-11.614 1.872-2.948 6.057-9.544 9.299-14.656 7.434-11.722 7.795-12.04 14.253-12.577 1.901-.158 4.14-.544 5.107-.879 7-2.431 12.009-8.168 13.069-14.97.691-4.435-.445-9.843-2.819-13.414-1.507-2.268-4.724-5.234-6.962-6.42-3.767-1.996-9.401-2.7-13.554-1.694Zm5.711 102.451a8645.248 8645.248 0 0 1-24.454 8.06c-10.251 3.365-20.652 6.801-23.112 7.635-3.949 1.338-4.77 1.518-7.008 1.533-2.96.02-4.16-.425-7.173-2.656-4.568-3.383-9.946-4.514-15.734-3.309-5.443 1.134-10.24 4.853-12.562 9.742-6.306 13.276 2.568 27.518 17.129 27.487 5.184-.011 9.213-1.707 12.993-5.469 2.614-2.602 3.803-4.545 4.937-8.064 1.02-3.171 2.191-5.089 3.9-6.392 1.453-1.108-.435-.46 38.559-13.232 11.563-3.787 21.479-7.115 22.035-7.394 2.268-1.138 3.397-4.714 2.182-6.913-.314-.569-1.059-1.429-1.655-1.911-1.865-1.507-3.23-1.387-10.037.883Z"/><path d="m144.092 267.232 1.034.69c12.154 8.028 20.868 19.038 26.601 32.341 1.376 2.064.459 3.212-2.293 3.899l-4.658 1.192c-10.53 2.714-18.886 4.995-29.278 7.709l-5.927 1.544c-2.134.528-2.723.306-4.993-2.279l-.32-.368c-3.238-3.669-5.663-6.12-9.951-8.308l-.827-.407c-14.448-7.11-28.436-5.046-41.507 3.441-15.594 10.091-23.62 25-23.392 43.578.23 18.349 12.842 33.487 30.96 36.01 15.593 2.064 28.664-3.44 38.984-15.137 2.064-2.524 3.898-5.276 6.191-8.487H80.458c-4.815 0-5.962-2.981-4.356-6.881l.794-1.872c2.948-6.858 7.519-16.716 10.487-22.353l.648-1.213c.793-1.375 2.403-3.232 5.498-3.232h73.8c3.315-10.503 8.692-20.427 15.865-29.818 16.741-22.018 36.921-33.487 64.21-38.303 23.391-4.129 45.407-1.835 65.357 11.697 18.117 12.386 29.354 29.13 32.335 51.148 3.898 30.964-5.046 56.194-26.372 77.754-15.135 15.368-33.71 25.001-55.038 29.358-6.191 1.148-12.383 1.377-18.345 2.065-20.868-.459-39.902-6.422-55.955-20.184-11.29-9.762-19.067-21.758-22.932-35.725a96.453 96.453 0 0 1-9.631 15.54c-16.512 21.791-38.067 35.322-65.357 38.993-22.473 2.982-43.342-1.377-61.688-15.139-16.97-12.844-26.601-29.817-29.125-50.917-2.98-25.001 4.358-47.479 19.494-67.204 16.282-21.331 37.838-34.863 64.21-39.679 21.157-3.828 41.429-1.468 59.735 10.547Zm109.09 32.868-.734.163c-21.326 4.817-35.085 18.349-40.13 39.909-4.129 17.89 4.586 36.01 21.097 43.35 12.612 5.505 25.225 4.816 37.379-1.377 18.117-9.403 27.978-24.083 29.125-43.808-.23-2.981-.23-5.275-.689-7.569-4.081-22.451-24.529-35.261-46.048-30.668Z"/></mask><path fill-rule="evenodd" clip-rule="evenodd" d="M168.896.22c-6.727 1.483-11.875 6.22-13.92 12.812-.58 1.872-.69 2.862-.675 6.105.015 3.475.099 4.08.819 5.915 1.677 4.27 4.607 7.708 8.534 10.01 2.613 1.532 5.403 2.338 8.911 2.575 3.869.26 5.744.977 7.654 2.924.879.897 3.431 4.607 6.163 8.963 2.564 4.088 6.111 9.711 7.88 12.495 1.77 2.785 5.107 8.044 7.416 11.688 2.308 3.645 9.023 14.231 14.921 23.526a156580.594 156580.594 0 0 1 20.643 32.534 31042.993 31042.993 0 0 1 16.054 25.313c1.503 2.375 4.521 7.132 6.707 10.571 16.917 26.621 18.488 29.171 18.488 29.996.001.535-.251.977-.736 1.295-.837.547 1.32 1.188-41.61-12.38-5.823-1.84-13.271-4.189-16.552-5.218-16.079-5.045-22.437-7.097-23.182-7.478-2.385-1.223-3.931-3.355-5.162-7.121-1.11-3.398-2.313-5.338-4.883-7.878-3.786-3.742-7.936-5.491-12.996-5.48-8.881.021-15.84 5.025-18.385 13.222-1.024 3.299-.973 8.475.116 11.614 1.152 3.324 2.181 4.966 4.681 7.476 3.898 3.913 8.195 5.489 14.333 5.258 2.94-.111 3.761-.26 5.749-1.043 1.298-.51 3.439-1.725 4.86-2.756 3.199-2.321 5.288-3.1 7.732-2.885.984.087 3.936.846 6.56 1.689 2.625.842 8.328 2.647 12.675 4.011a8090.153 8090.153 0 0 1 16.103 5.075c11.955 3.785 25.025 7.905 33.671 10.614 8.215 2.573 8.741 2.786 10.324 4.174 1.398 1.225 2.343 2.886 3.286 5.773 1.105 3.38 2.311 5.327 4.887 7.892 2.424 2.412 5.047 3.987 8.222 4.934 2.704.808 7.414.741 10.281-.146 6.568-2.032 10.549-5.82 12.712-12.097.717-2.081.821-2.835.823-5.956.002-3.076-.109-3.906-.791-5.956-1.667-5.008-5.009-8.972-9.269-10.99-2.599-1.232-3.855-1.545-8.51-2.122-5.844-.724-6.944-1.57-11.602-8.925-1.452-2.293-4.384-6.916-6.515-10.274a30033.396 30033.396 0 0 1-17.935-28.29 4546.584 4546.584 0 0 0-6.707-10.572c-.733-1.146-3.542-5.568-6.241-9.827a120732.265 120732.265 0 0 0-30.21-47.647 12973.999 12973.999 0 0 0-14.458-22.78c-10.814-16.961-10.509-16.397-10.492-19.475.01-1.764.223-2.661 1.285-5.392 1.265-3.256 1.273-3.298 1.271-7.147-.002-3.453-.09-4.128-.826-6.25-2.026-5.844-5.873-9.725-11.696-11.798-1.973-.703-8.248-1.047-10.408-.57Zm-48.505 75.807c-3.776.915-7.881 3.557-10.172 6.548-1.515 1.977-3.087 5.213-3.682 7.578-.358 1.427-.451 2.821-.355 5.36.12 3.165.222 3.653 1.302 6.262 1.07 2.582 1.172 3.063 1.167 5.509-.006 3.095-.051 3.202-3.703 8.898a3114.285 3114.285 0 0 0-7.03 11.054c-2.595 4.095-6.418 10.125-8.497 13.401a42289.56 42289.56 0 0 0-8.5 13.401c-2.596 4.094-6.108 9.625-7.805 12.29-1.697 2.665-3.242 5.434-3.435 6.153-1.123 4.194 3.545 7.848 7.47 5.848.62-.315 1.287-.766 1.483-1.001.34-.411 7.664-11.885 16.005-25.077 2.174-3.44 5.486-8.666 7.359-11.614 1.872-2.948 6.057-9.544 9.299-14.656 7.434-11.722 7.795-12.04 14.253-12.577 1.901-.158 4.14-.544 5.107-.879 7-2.431 12.009-8.168 13.069-14.97.691-4.435-.445-9.843-2.819-13.414-1.507-2.268-4.724-5.234-6.962-6.42-3.767-1.996-9.401-2.7-13.554-1.694Zm5.711 102.451a8645.248 8645.248 0 0 1-24.454 8.06c-10.251 3.365-20.652 6.801-23.112 7.635-3.949 1.338-4.77 1.518-7.008 1.533-2.96.02-4.16-.425-7.173-2.656-4.568-3.383-9.946-4.514-15.734-3.309-5.443 1.134-10.24 4.853-12.562 9.742-6.306 13.276 2.568 27.518 17.129 27.487 5.184-.011 9.213-1.707 12.993-5.469 2.614-2.602 3.803-4.545 4.937-8.064 1.02-3.171 2.191-5.089 3.9-6.392 1.453-1.108-.435-.46 38.559-13.232 11.563-3.787 21.479-7.115 22.035-7.394 2.268-1.138 3.397-4.714 2.182-6.913-.314-.569-1.059-1.429-1.655-1.911-1.865-1.507-3.23-1.387-10.037.883Z" fill="#192959"/><path d="m144.092 267.232 1.034.69c12.154 8.028 20.868 19.038 26.601 32.341 1.376 2.064.459 3.212-2.293 3.899l-4.658 1.192c-10.53 2.714-18.886 4.995-29.278 7.709l-5.927 1.544c-2.134.528-2.723.306-4.993-2.279l-.32-.368c-3.238-3.669-5.663-6.12-9.951-8.308l-.827-.407c-14.448-7.11-28.436-5.046-41.507 3.441-15.594 10.091-23.62 25-23.392 43.578.23 18.349 12.842 33.487 30.96 36.01 15.593 2.064 28.664-3.44 38.984-15.137 2.064-2.524 3.898-5.276 6.191-8.487H80.458c-4.815 0-5.962-2.981-4.356-6.881l.794-1.872c2.948-6.858 7.519-16.716 10.487-22.353l.648-1.213c.793-1.375 2.403-3.232 5.498-3.232h73.8c3.315-10.503 8.692-20.427 15.865-29.818 16.741-22.018 36.921-33.487 64.21-38.303 23.391-4.129 45.407-1.835 65.357 11.697 18.117 12.386 29.354 29.13 32.335 51.148 3.898 30.964-5.046 56.194-26.372 77.754-15.135 15.368-33.71 25.001-55.038 29.358-6.191 1.148-12.383 1.377-18.345 2.065-20.868-.459-39.902-6.422-55.955-20.184-11.29-9.762-19.067-21.758-22.932-35.725a96.453 96.453 0 0 1-9.631 15.54c-16.512 21.791-38.067 35.322-65.357 38.993-22.473 2.982-43.342-1.377-61.688-15.139-16.97-12.844-26.601-29.817-29.125-50.917-2.98-25.001 4.358-47.479 19.494-67.204 16.282-21.331 37.838-34.863 64.21-39.679 21.157-3.828 41.429-1.468 59.735 10.547Zm109.09 32.868-.734.163c-21.326 4.817-35.085 18.349-40.13 39.909-4.129 17.89 4.586 36.01 21.097 43.35 12.612 5.505 25.225 4.816 37.379-1.377 18.117-9.403 27.978-24.083 29.125-43.808-.23-2.981-.23-5.275-.689-7.569-4.081-22.451-24.529-35.261-46.048-30.668Z" fill="#192959"/><path clip-rule="evenodd" d="M168.896.22c-6.727 1.483-11.875 6.22-13.92 12.812-.58 1.872-.69 2.862-.675 6.105.015 3.475.099 4.08.819 5.915 1.677 4.27 4.607 7.708 8.534 10.01 2.613 1.532 5.403 2.338 8.911 2.575 3.869.26 5.744.977 7.654 2.924.879.897 3.431 4.607 6.163 8.963 2.564 4.088 6.111 9.711 7.88 12.495 1.77 2.785 5.107 8.044 7.416 11.688 2.308 3.645 9.023 14.231 14.921 23.526a156580.594 156580.594 0 0 1 20.643 32.534 31042.993 31042.993 0 0 1 16.054 25.313c1.503 2.375 4.521 7.132 6.707 10.571 16.917 26.621 18.488 29.171 18.488 29.996.001.535-.251.977-.736 1.295-.837.547 1.32 1.188-41.61-12.38-5.823-1.84-13.271-4.189-16.552-5.218-16.079-5.045-22.437-7.097-23.182-7.478-2.385-1.223-3.931-3.355-5.162-7.121-1.11-3.398-2.313-5.338-4.883-7.878-3.786-3.742-7.936-5.491-12.996-5.48-8.881.021-15.84 5.025-18.385 13.222-1.024 3.299-.973 8.475.116 11.614 1.152 3.324 2.181 4.966 4.681 7.476 3.898 3.913 8.195 5.489 14.333 5.258 2.94-.111 3.761-.26 5.749-1.043 1.298-.51 3.439-1.725 4.86-2.756 3.199-2.321 5.288-3.1 7.732-2.885.984.087 3.936.846 6.56 1.689 2.625.842 8.328 2.647 12.675 4.011a8090.153 8090.153 0 0 1 16.103 5.075c11.955 3.785 25.025 7.905 33.671 10.614 8.215 2.573 8.741 2.786 10.324 4.174 1.398 1.225 2.343 2.886 3.286 5.773 1.105 3.38 2.311 5.327 4.887 7.892 2.424 2.412 5.047 3.987 8.222 4.934 2.704.808 7.414.741 10.281-.146 6.568-2.032 10.549-5.82 12.712-12.097.717-2.081.821-2.835.823-5.956.002-3.076-.109-3.906-.791-5.956-1.667-5.008-5.009-8.972-9.269-10.99-2.599-1.232-3.855-1.545-8.51-2.122-5.844-.724-6.944-1.57-11.602-8.925-1.452-2.293-4.384-6.916-6.515-10.274a30033.396 30033.396 0 0 1-17.935-28.29 4546.584 4546.584 0 0 0-6.707-10.572c-.733-1.146-3.542-5.568-6.241-9.827a120732.265 120732.265 0 0 0-30.21-47.647 12973.999 12973.999 0 0 0-14.458-22.78c-10.814-16.961-10.509-16.397-10.492-19.475.01-1.764.223-2.661 1.285-5.392 1.265-3.256 1.273-3.298 1.271-7.147-.002-3.453-.09-4.128-.826-6.25-2.026-5.844-5.873-9.725-11.696-11.798-1.973-.703-8.248-1.047-10.408-.57Zm-48.505 75.807c-3.776.915-7.881 3.557-10.172 6.548-1.515 1.977-3.087 5.213-3.682 7.578-.358 1.427-.451 2.821-.355 5.36.12 3.165.222 3.653 1.302 6.262 1.07 2.582 1.172 3.063 1.167 5.509-.006 3.095-.051 3.202-3.703 8.898a3114.285 3114.285 0 0 0-7.03 11.054c-2.595 4.095-6.418 10.125-8.497 13.401a42289.56 42289.56 0 0 0-8.5 13.401c-2.596 4.094-6.108 9.625-7.805 12.29-1.697 2.665-3.242 5.434-3.435 6.153-1.123 4.194 3.545 7.848 7.47 5.848.62-.315 1.287-.766 1.483-1.001.34-.411 7.664-11.885 16.005-25.077 2.174-3.44 5.486-8.666 7.359-11.614 1.872-2.948 6.057-9.544 9.299-14.656 7.434-11.722 7.795-12.04 14.253-12.577 1.901-.158 4.14-.544 5.107-.879 7-2.431 12.009-8.168 13.069-14.97.691-4.435-.445-9.843-2.819-13.414-1.507-2.268-4.724-5.234-6.962-6.42-3.767-1.996-9.401-2.7-13.554-1.694Zm5.711 102.451a8645.248 8645.248 0 0 1-24.454 8.06c-10.251 3.365-20.652 6.801-23.112 7.635-3.949 1.338-4.77 1.518-7.008 1.533-2.96.02-4.16-.425-7.173-2.656-4.568-3.383-9.946-4.514-15.734-3.309-5.443 1.134-10.24 4.853-12.562 9.742-6.306 13.276 2.568 27.518 17.129 27.487 5.184-.011 9.213-1.707 12.993-5.469 2.614-2.602 3.803-4.545 4.937-8.064 1.02-3.171 2.191-5.089 3.9-6.392 1.453-1.108-.435-.46 38.559-13.232 11.563-3.787 21.479-7.115 22.035-7.394 2.268-1.138 3.397-4.714 2.182-6.913-.314-.569-1.059-1.429-1.655-1.911-1.865-1.507-3.23-1.387-10.037.883Z" stroke="#000" stroke-width="2" mask="url(#a)"/><path d="m144.092 267.232 1.034.69c12.154 8.028 20.868 19.038 26.601 32.341 1.376 2.064.459 3.212-2.293 3.899l-4.658 1.192c-10.53 2.714-18.886 4.995-29.278 7.709l-5.927 1.544c-2.134.528-2.723.306-4.993-2.279l-.32-.368c-3.238-3.669-5.663-6.12-9.951-8.308l-.827-.407c-14.448-7.11-28.436-5.046-41.507 3.441-15.594 10.091-23.62 25-23.392 43.578.23 18.349 12.842 33.487 30.96 36.01 15.593 2.064 28.664-3.44 38.984-15.137 2.064-2.524 3.898-5.276 6.191-8.487H80.458c-4.815 0-5.962-2.981-4.356-6.881l.794-1.872c2.948-6.858 7.519-16.716 10.487-22.353l.648-1.213c.793-1.375 2.403-3.232 5.498-3.232h73.8c3.315-10.503 8.692-20.427 15.865-29.818 16.741-22.018 36.921-33.487 64.21-38.303 23.391-4.129 45.407-1.835 65.357 11.697 18.117 12.386 29.354 29.13 32.335 51.148 3.898 30.964-5.046 56.194-26.372 77.754-15.135 15.368-33.71 25.001-55.038 29.358-6.191 1.148-12.383 1.377-18.345 2.065-20.868-.459-39.902-6.422-55.955-20.184-11.29-9.762-19.067-21.758-22.932-35.725a96.453 96.453 0 0 1-9.631 15.54c-16.512 21.791-38.067 35.322-65.357 38.993-22.473 2.982-43.342-1.377-61.688-15.139-16.97-12.844-26.601-29.817-29.125-50.917-2.98-25.001 4.358-47.479 19.494-67.204 16.282-21.331 37.838-34.863 64.21-39.679 21.157-3.828 41.429-1.468 59.735 10.547Zm109.09 32.868-.734.163c-21.326 4.817-35.085 18.349-40.13 39.909-4.129 17.89 4.586 36.01 21.097 43.35 12.612 5.505 25.225 4.816 37.379-1.377 18.117-9.403 27.978-24.083 29.125-43.808-.23-2.981-.23-5.275-.689-7.569-4.081-22.451-24.529-35.261-46.048-30.668Z" stroke="#000" stroke-width="2" mask="url(#a)"/></svg>
