<svg width="171" height="152" viewBox="0 0 171 152" fill="none" xmlns="http://www.w3.org/2000/svg"><path d="M168.757 68.74 133.201 7.112A14.254 14.254 0 0 0 120.874 0H49.761A14.187 14.187 0 0 0 37.46 7.111L1.902 68.741a14.243 14.243 0 0 0 0 14.222l35.557 61.63a14.188 14.188 0 0 0 12.302 7.111h71.113c5.073 0 9.767-2.703 12.303-7.111l35.557-61.63a14.184 14.184 0 0 0 .023-14.222Z" fill="url(#a)"/><path fill-rule="evenodd" clip-rule="evenodd" d="M156.718 47.872C129.934 53.848 102.085 57 73.5 57a383.184 383.184 0 0 1-61.93-5.015l5.778-10.016A372.599 372.599 0 0 0 73.5 46.206c26.602 0 52.547-2.81 77.555-8.148l5.663 9.814Z" fill="#F6D697"/><path fill-rule="evenodd" clip-rule="evenodd" d="M72.656 0h-11.17C51.318 37.699 35.34 73.013 14.57 104.921l6.03 10.452C43.981 80.56 61.763 41.673 72.656 0Z" fill="#F6D697"/><mask id="c" style="mask-type:alpha" maskUnits="userSpaceOnUse" x="0" y="0" width="171" height="152"><path d="M168.757 68.74 133.201 7.112A14.254 14.254 0 0 0 120.874 0H49.761A14.187 14.187 0 0 0 37.46 7.111L1.902 68.741a14.243 14.243 0 0 0 0 14.222l35.557 61.63a14.188 14.188 0 0 0 12.302 7.111h71.113c5.073 0 9.767-2.703 12.303-7.111l35.557-61.63a14.184 14.184 0 0 0 .023-14.222Z" fill="url(#b)"/></mask><g mask="url(#c)"><path fill-rule="evenodd" clip-rule="evenodd" d="M460.5 336C670.644 336 841 165.644 841-44.5S670.644-425 460.5-425 80-254.644 80-44.5 250.356 336 460.5 336Zm0-10.794c204.183 0 369.706-165.523 369.706-369.706 0-204.183-165.523-369.706-369.706-369.706-204.183 0-369.706 165.523-369.706 369.706 0 204.183 165.523 369.706 369.706 369.706Z" fill="#F6D697"/></g><defs><radialGradient id="a" cx="0" cy="0" r="1" gradientUnits="userSpaceOnUse" gradientTransform="matrix(170.715 0 0 170.711 128.381 149.728)"><stop stop-color="#EC991C"/><stop offset="1" stop-color="#E9B213"/></radialGradient><radialGradient id="b" cx="0" cy="0" r="1" gradientUnits="userSpaceOnUse" gradientTransform="matrix(170.715 0 0 170.711 128.381 149.728)"><stop stop-color="#EC991C"/><stop offset="1" stop-color="#E9B213"/></radialGradient></defs></svg>
