<svg width="166" height="147" viewBox="0 0 166 147" fill="none" xmlns="http://www.w3.org/2000/svg"><path d="M163.664 66.61 129.186 6.89A13.797 13.797 0 0 0 117.234 0H48.278a13.799 13.799 0 0 0-11.93 6.89l-34.5 59.72a13.774 13.774 0 0 0 0 13.78l34.478 59.719A13.785 13.785 0 0 0 48.278 147h68.956a13.785 13.785 0 0 0 11.929-6.891l34.478-59.718a13.772 13.772 0 0 0 .023-13.782Z" fill="url(#a)"/><rect x="110.338" y="39.047" width="9.194" height="68.906" rx="1" fill="url(#b)"/><rect x="87.353" y="64.313" width="9.194" height="43.641" rx="1" fill="url(#c)"/><rect x="66.666" y="52.828" width="9.194" height="55.125" rx="1" fill="url(#d)"/><rect x="43.681" y="78.094" width="9.194" height="29.859" rx="1" fill="url(#e)"/><defs><radialGradient id="a" cx="0" cy="0" r="1" gradientUnits="userSpaceOnUse" gradientTransform="matrix(165.54 0 0 165.421 124.52 145.094)"><stop stop-color="#EC991C"/><stop offset="1" stop-color="#E9B213"/></radialGradient><radialGradient id="b" cx="0" cy="0" r="1" gradientUnits="userSpaceOnUse" gradientTransform="matrix(-6.38062 47.34327 -12.64636 -1.7044 118.393 49.753)"><stop offset=".188" stop-color="#fff"/><stop offset=".613" stop-color="#fff" stop-opacity=".857"/><stop offset="1" stop-color="#fff" stop-opacity=".6"/></radialGradient><radialGradient id="c" cx="0" cy="0" r="1" gradientUnits="userSpaceOnUse" gradientTransform="matrix(-6.38044 29.98416 -12.3183 -2.62126 95.408 71.093)"><stop offset=".188" stop-color="#fff"/><stop offset=".613" stop-color="#fff" stop-opacity=".857"/><stop offset="1" stop-color="#fff" stop-opacity=".6"/></radialGradient><radialGradient id="d" cx="0" cy="0" r="1" gradientUnits="userSpaceOnUse" gradientTransform="rotate(99.563 11.403 62.29) scale(38.4083 12.6972)"><stop offset=".188" stop-color="#fff"/><stop offset=".613" stop-color="#fff" stop-opacity=".857"/><stop offset="1" stop-color="#fff" stop-opacity=".6"/></radialGradient><radialGradient id="e" cx="0" cy="0" r="1" gradientUnits="userSpaceOnUse" gradientTransform="rotate(107.276 -4.588 60.412) scale(21.4848 12.2951)"><stop offset=".188" stop-color="#fff"/><stop offset=".613" stop-color="#fff" stop-opacity=".857"/><stop offset="1" stop-color="#fff" stop-opacity=".6"/></radialGradient></defs></svg>
