<svg width="97" height="97" viewBox="0 0 97 97" fill="none" xmlns="http://www.w3.org/2000/svg"><g clip-path="url(#a)"><path d="M19.5 38c1.383.5-1 0 1.383.5v2.097c0 .933.042 2.695.57 3.759.732 1.475 5.124 4.222 9.43 4.222h1.548c.973-6.923 6.918-12.25 14.11-12.25 7.164 0 13.092 5.284 14.1 12.166h8.007c1.008-6.882 6.935-12.166 14.099-12.166 7.871 0 14.253 6.38 14.253 14.25 0 7.869-6.382 14.248-14.253 14.248-7.164 0-13.091-5.285-14.1-12.166h-8.005c-1.008 6.881-6.936 12.166-14.1 12.166-7.15 0-13.07-5.264-14.095-12.127l-1.71.05c-2.818-.02-5.794-.773-8.184-2.397-.652-.443-1.294-.908-1.964-1.349v.925c-.004.3-.058 4.796-.062 9.788v1.057c.002 3.275.027 6.648.105 9.11.169 5.397 4.56 9.754 9.405 10.774.63.133 1.713.15 2.395.09.974-6.92 6.919-12.246 14.11-12.246 7.871 0 14.253 6.38 14.253 14.25S54.413 97 46.542 97c-7.112 0-13.005-5.208-14.078-12.017h-1.233c-9.259-.505-15.015-8.997-14.915-15.885.127-8.668.032-17.34.03-26.01V37c.654.554.154 0 3.154 1Zm27.042 34.667c-5.57 0-10.087 4.514-10.087 10.084 0 5.569 4.517 10.084 10.087 10.084 5.57 0 10.086-4.515 10.086-10.084 0-5.57-4.516-10.084-10.086-10.084Zm0-32.174c-5.57 0-10.087 4.515-10.087 10.084s4.517 10.084 10.087 10.084c5.57 0 10.086-4.515 10.086-10.084 0-5.57-4.516-10.084-10.086-10.084Zm36.205 0c-5.571 0-10.087 4.515-10.087 10.084s4.516 10.084 10.087 10.084c5.57 0 10.087-4.515 10.087-10.084 0-5.57-4.517-10.084-10.087-10.084Zm5.744 5.838a2.083 2.083 0 0 1 .065 2.882l-.06.064-6.18 6.193a2.084 2.084 0 0 1-2.871.075l-.066-.062-3.025-2.978a2.08 2.08 0 0 1-.023-2.945 2.083 2.083 0 0 1 2.882-.084l.064.061 1.55 1.526 4.718-4.728a2.084 2.084 0 0 1 2.946-.004Zm-36.37-.03a2.083 2.083 0 0 1 .063 2.882l-.06.063-6.18 6.193a2.084 2.084 0 0 1-2.87.075l-.066-.062-3.025-2.978a2.083 2.083 0 0 1 2.859-3.028l.064.06 1.55 1.527 4.718-4.728a2.084 2.084 0 0 1 2.946-.004ZM19.5 38c-2.767-1-2.5-1.441-2.5-.675.5.675 1 .218 2 .512 1 .294 1.589 1.163 1.883.663 0 0 7.533-.5-1.383-.5Z" fill="#4A7EBF"/><path d="M50.48 84.83a2.085 2.085 0 0 0 .798-4.008 2.082 2.082 0 0 0-2.27 3.397c.39.39.92.61 1.473.61m-7.976 0a2.083 2.083 0 1 0 0-4.164 2.083 2.083 0 0 0 0 4.164m40.242 8.006c-5.57 0-10.087-4.515-10.087-10.084 0-5.57 4.516-10.085 10.087-10.085 5.57 0 10.087 4.515 10.087 10.085 0 5.57-4.517 10.084-10.087 10.084Zm0-24.334c-7.164 0-13.091 5.285-14.1 12.167h-2.33c-1.018 0-1.844.932-1.844 2.082s.826 2.083 1.843 2.083h2.331C69.655 91.715 75.583 97 82.747 97 90.619 97 97 90.62 97 82.75s-6.382-14.249-14.253-14.249" fill="#85B3DF"/><path d="M37.373 16.369a9.846 9.846 0 0 0-.872-8.185C34.29 4.386 29.844 2.432 25.502 3.35A10.262 10.262 0 0 0 21.058.498a10.383 10.383 0 0 0-5.296-.28 10.3 10.3 0 0 0-4.727 2.369A10.097 10.097 0 0 0 8.14 6.969c-1.41.286-2.741.864-3.906 1.698a10.022 10.022 0 0 0-2.849 3.136A9.971 9.971 0 0 0 2.64 23.63a9.839 9.839 0 0 0 .864 8.184c2.214 3.8 6.663 5.753 11.007 4.833a10.105 10.105 0 0 0 3.442 2.487A10.23 10.23 0 0 0 22.13 40c4.45.004 8.393-2.83 9.752-7.01a10.191 10.191 0 0 0 3.906-1.698 10.03 10.03 0 0 0 2.849-3.136 9.986 9.986 0 0 0-1.263-11.787ZM22.129 37.382a7.626 7.626 0 0 1-4.86-1.735l.24-.134 8.073-4.597a1.31 1.31 0 0 0 .664-1.135V18.553l3.413 1.947c.034.017.058.05.064.087v9.304c-.009 4.134-3.404 7.482-7.594 7.491ZM5.806 30.506a7.365 7.365 0 0 1-.903-5.023l.24.142 8.08 4.597a1.317 1.317 0 0 0 1.32 0l9.872-5.614v3.888a.132.132 0 0 1-.056.102l-8.177 4.652c-3.634 2.065-8.277.837-10.376-2.744ZM3.68 13.16a7.554 7.554 0 0 1 3.996-3.288v9.462c-.003.229.057.454.172.652.115.198.282.363.484.476l9.824 5.59L14.743 28a.13.13 0 0 1-.12 0L6.46 23.355c-3.626-2.074-4.87-6.65-2.781-10.235v.04Zm28.041 6.426-9.856-5.645L25.27 12a.129.129 0 0 1 .12 0l8.162 4.652a7.536 7.536 0 0 1 2.933 3.015 7.404 7.404 0 0 1-.677 7.998 7.587 7.587 0 0 1-3.4 2.494v-9.462a1.304 1.304 0 0 0-.194-.645 1.327 1.327 0 0 0-.493-.466Zm3.397-5.038-.24-.142-8.065-4.636a1.325 1.325 0 0 0-1.327 0l-9.864 5.614v-3.887a.11.11 0 0 1 .048-.103L23.83 6.75a7.685 7.685 0 0 1 8.144.347 7.52 7.52 0 0 1 2.665 3.26 7.405 7.405 0 0 1 .478 4.16v.031ZM13.76 21.438l-3.414-1.94a.134.134 0 0 1-.064-.094v-9.28a7.424 7.424 0 0 1 1.19-4.019 7.57 7.57 0 0 1 3.188-2.763 7.695 7.695 0 0 1 4.193-.646 7.654 7.654 0 0 1 3.891 1.672l-.24.134-8.073 4.596c-.2.117-.368.283-.484.482-.116.199-.178.424-.18.654l-.007 11.205Zm1.854-3.942 4.396-2.5 4.405 2.5v4.999l-4.389 2.5-4.404-2.5-.008-5Z" fill="#4A7EBF"/></g><defs><clipPath id="a"><path fill="#fff" d="M0 0h97v97H0z"/></clipPath></defs></svg>
