<svg width="137" height="142" viewBox="0 0 137 142" fill="none" xmlns="http://www.w3.org/2000/svg">
<path d="M27.4832 59.8015H0.0410156C0.0454844 59.9352 0.0491406 60.0696 0.0564531 60.2037C0.0678281 60.4617 0.0865156 60.7188 0.101953 60.9768C0.109672 61.0873 0.114141 61.1978 0.122266 61.3075C0.143797 61.6061 0.169797 61.9035 0.197016 62.2004L0.215297 62.4003C0.246984 62.7306 0.283141 63.0613 0.322141 63.3891C0.324172 63.4216 0.327828 63.4529 0.332297 63.4846C0.375164 63.8435 0.422835 64.2019 0.475297 64.5595C0.790628 66.7524 1.26447 68.9196 1.89311 71.0441C1.89595 71.0534 1.89961 71.0615 1.90123 71.0709C2.00578 71.4252 2.11507 71.7782 2.22908 72.1296C2.33344 72.4494 2.44028 72.7685 2.54961 73.0867C2.57642 73.1619 2.60161 73.2378 2.62923 73.3134C2.72145 73.5722 2.81489 73.8314 2.91158 74.0905C2.95627 74.2071 3.00095 74.3233 3.04442 74.4411L3.29508 75.083C3.35927 75.2435 3.42589 75.404 3.49292 75.5648C3.56158 75.7318 3.63227 75.898 3.70255 76.0661C3.78989 76.2705 3.8813 76.4736 3.97067 76.6771C4.0247 76.799 4.07955 76.9193 4.13317 77.0399C4.24489 77.2841 4.35986 77.5282 4.47523 77.7708C4.51342 77.8488 4.54958 77.9268 4.58858 78.0048C4.72305 78.2843 4.86077 78.5609 4.9997 78.8355C5.18386 79.1978 5.37292 79.5575 5.56683 79.9145C5.60136 79.9775 5.63955 80.038 5.67367 80.1002L29.111 65.981L29.1972 65.929C28.2798 63.9995 27.7001 61.927 27.4832 59.8015Z" fill="#93D500"/>
<path d="M34.2277 72.3999L34.1619 72.4657L14.8322 91.7963C14.9313 91.8889 15.03 91.9832 15.132 92.0726C15.3119 92.2363 15.496 92.3988 15.6788 92.5584C15.7734 92.6429 15.8665 92.7266 15.9611 92.8083C16.1805 92.9976 16.4011 93.1824 16.6213 93.3673L16.7996 93.516C17.0806 93.7475 17.3645 93.9756 17.6511 94.2001C17.9249 94.4154 18.2016 94.6254 18.4811 94.8371C19.6574 95.717 20.8748 96.5405 22.1292 97.3051C22.1715 97.3319 22.2145 97.3567 22.258 97.3839C22.4948 97.5261 22.7313 97.6658 22.9702 97.8043C23.2532 97.9663 23.5371 98.1269 23.8217 98.2862C24.1072 98.4429 24.394 98.5973 24.6821 98.7493C25.3849 99.1173 26.0999 99.459 26.8206 99.7877L27.5063 98.122L37.2283 74.512L37.2649 74.4247C36.1891 73.8501 35.1719 73.172 34.2277 72.3999Z" fill="#4D5A31"/>
<path d="M32.2149 70.4743C32.008 70.2427 31.8071 70.0057 31.6124 69.7637C31.4407 69.5516 31.2736 69.3358 31.1111 69.1166C30.9262 68.8659 30.7455 68.6145 30.5744 68.3569C30.4011 68.1 30.2338 67.8391 30.0727 67.5745L6.60608 81.7111C6.96593 82.3058 7.33924 82.8921 7.7257 83.4698C7.7387 83.4893 7.75089 83.5104 7.76389 83.5303L7.7777 83.5515C7.7907 83.5701 7.80208 83.5905 7.81508 83.61C7.81589 83.612 7.81752 83.614 7.81874 83.6156C7.8492 83.662 7.88089 83.7066 7.91217 83.753L7.91786 83.7611L7.9207 83.7651C8.32609 84.3661 8.74559 84.9573 9.17886 85.5384L9.2073 85.5754L9.23574 85.612C9.42261 85.8606 9.61152 86.1084 9.8057 86.3546C9.83049 86.3871 9.85567 86.4188 9.88289 86.4501C10.0811 86.7048 10.2839 86.9554 10.4898 87.2041C10.5382 87.2626 10.5881 87.3219 10.6365 87.3816C10.8221 87.6034 11.0078 87.8244 11.1971 88.0438C11.2784 88.1372 11.3625 88.2306 11.4441 88.3241C11.6058 88.5077 11.7655 88.6905 11.9308 88.8717C12.021 88.9708 12.1144 89.0712 12.2066 89.1707C12.2485 89.2162 12.2891 89.2605 12.3318 89.306C12.4524 89.436 12.5723 89.566 12.6941 89.6952C12.7421 89.7464 12.7933 89.7963 12.8424 89.8475C13.0562 90.0716 13.2726 90.2931 13.4916 90.5121L32.8498 71.1539C32.6319 70.9333 32.4202 70.7067 32.2149 70.4743Z" fill="#6BA43A"/>
<path d="M61.9029 74C61.6063 74.2356 61.3057 74.4668 61 74.689L61.0675 74.8001L80.7726 107C81.6877 106.414 82.5868 105.805 83.469 105.173C85.3949 103.773 87.2414 102.271 89 100.673L62.0107 74.1044L61.9029 74Z" fill="#4D5A31"/>
<path d="M76.3842 108.388L75.7636 107.147L58.6936 73C58.3483 73.2506 57.9946 73.477 57.6419 73.706C57.2861 73.9362 56.9276 74.1525 56.5639 74.3593C53.3194 76.2189 48.1085 77.9951 44.5158 78C42.1766 77.9998 41.5139 76.7816 39.2723 75.9762C38.8886 75.8385 38.5143 75.6571 38.1354 75.4947C37.7564 75.3336 37.3732 75.1947 37 75.0089L44.3089 102.12L43.8157 103.563L43.3936 104.8L43.3914 104.806C43.4236 104.822 43.4572 104.835 43.4899 104.85C43.5246 104.868 43.5583 104.881 43.5936 104.899L43.5967 104.9C43.6051 104.904 43.6136 104.907 43.6209 104.912C43.9183 105.058 44.2178 105.185 44.5158 105.325C44.89 105.5 45.2643 105.679 45.6396 105.844C45.8306 105.928 46.0212 106.026 46.2122 106.107C50.1575 107.786 43.3306 111 47.4787 111.657C47.6408 111.68 47.8019 111.708 47.9645 111.735C48.134 111.758 48.3051 111.779 48.4746 111.802C48.7946 111.845 49.1136 111.89 49.4347 111.928C49.5136 111.935 49.5931 111.944 49.6726 111.953C50.0663 111.997 50.4595 112.038 50.8506 112.071C50.9838 112.083 51.119 112.09 51.2506 112.102C51.5946 112.13 51.9389 112.155 52.2833 112.175C52.4939 112.188 52.7044 112.196 52.916 112.205C53.1892 112.216 53.4608 112.229 53.7366 112.239C54.1298 112.251 54.5267 112.256 54.9225 112.257C55.0162 112.257 55.1089 112.26 55.2015 112.261C58.516 112.261 52.8394 119.62 56.1165 118.958C56.1718 118.948 56.226 118.936 56.2828 118.927C56.6292 118.855 56.9755 118.776 57.3219 118.7C57.5193 118.653 57.7177 118.608 57.9124 118.562C58.1146 118.511 58.3178 118.461 58.5204 118.409C58.8587 118.323 59.1963 118.234 59.5331 118.14C59.5931 118.124 59.6542 118.11 59.7158 118.089C64.6943 116.69 69.504 114.529 74.0276 111.659L74.0287 111.657C74.325 111.468 74.6135 111.254 74.9082 111.061C75.2593 110.829 75.6083 110.59 75.9573 110.35C76.1994 110.183 76.4431 110.029 76.6826 109.857L76.6837 109.855L76.691 109.849C76.6947 109.847 76.6994 109.845 76.7031 109.842L76.7084 109.838L76.7152 109.833L76.7258 109.826L76.7658 109.797L77 109.628L76.3842 108.388Z" fill="#93D500"/>
<path d="M13.4903 25.3784C13.2706 25.5986 13.0626 25.8261 12.8481 26.0487C12.6336 26.2722 12.4154 26.494 12.2054 26.7203C10.7943 28.246 9.48781 29.8652 8.29481 31.5668C8.23794 31.6461 8.18147 31.7285 8.12581 31.8094C7.85595 32.2016 7.59226 32.598 7.33484 32.9985C7.28569 33.0728 7.23734 33.148 7.18981 33.2223C2.74341 40.1976 0.361562 48.1093 0.0410313 56.0877C0.0288438 56.3964 0.0223438 56.7068 0.0158438 57.016C0.00934375 57.3251 0 57.6355 0 57.9446H27.3784C27.3784 57.6343 27.4068 57.3263 27.4231 57.016C27.4389 56.706 27.4434 56.396 27.4739 56.0877C27.8335 52.4287 29.2705 48.9587 31.603 46.1167C31.798 45.879 32.0178 45.6564 32.227 45.4269C32.435 45.1977 32.628 44.9589 32.8498 44.7383L13.4903 25.3784ZM69.9806 18.5835C69.9441 18.5603 69.9047 18.538 69.8677 18.5157C69.6269 18.369 69.3845 18.2251 69.1405 18.0838C68.9995 18.0022 68.8582 17.9233 68.7164 17.8425C68.5734 17.7625 68.432 17.6828 68.2882 17.6048C68.0412 17.4692 67.7934 17.3355 67.5448 17.2039C67.5058 17.1844 67.4676 17.1628 67.4277 17.1425C65.7854 16.2845 64.0927 15.5264 62.359 14.8724C59.027 13.6134 55.5606 12.7438 52.0288 12.2809C51.9005 12.2631 51.7722 12.2458 51.6437 12.2289C51.5145 12.2131 51.3866 12.2005 51.2586 12.1863C51.0108 12.1578 50.7638 12.1294 50.5148 12.1054C50.4457 12.0989 50.3766 12.0945 50.3068 12.0867C50.0126 12.0599 49.7165 12.0339 49.4219 12.0128C49.3078 12.0043 49.1916 11.9978 49.0774 11.9913C48.8252 11.9746 48.5696 11.9567 48.3169 11.9458C48.1817 11.9385 48.048 11.9348 47.9139 11.9299L47.9131 39.2677V39.3746C49.3285 39.5198 50.723 39.8234 52.0707 40.2797L72.2686 20.0817C71.5215 19.5592 70.7586 19.0595 69.981 18.5835H69.9806Z" fill="#4D5A31"/>
<path d="M45.1286 11.9077C44.8199 11.9142 44.5095 11.9154 44.2004 11.9272C42.2634 12.0052 40.3304 12.2034 38.4133 12.5244L38.287 12.5455C38.0176 12.5922 37.7511 12.6414 37.4838 12.6917C37.3323 12.7202 37.18 12.7482 37.0288 12.7787C36.8708 12.8104 36.714 12.8429 36.5572 12.877C36.2972 12.931 36.0372 12.9875 35.7772 13.0476C35.7301 13.0582 35.6837 13.0692 35.635 13.0797C31.7923 13.977 28.08 15.3616 24.5882 17.1999H24.5874C24.3599 17.3206 24.1381 17.4571 23.9114 17.5818C23.6405 17.7301 23.3711 17.8832 23.1018 18.0376C22.9023 18.1526 22.6988 18.2586 22.5005 18.3772L22.4936 18.3813H22.4928L22.451 18.4052C22.399 18.4369 22.3453 18.4629 22.2933 18.4946L22.2962 18.4987L22.7751 19.2949L36.428 41.9604C36.6945 41.7996 36.9675 41.6537 37.2397 41.5083C37.513 41.3616 37.79 41.222 38.0705 41.0894C40.0205 40.1607 42.0923 39.5851 44.1991 39.3718C44.508 39.3396 44.8177 39.3152 45.1278 39.2987C45.4366 39.2824 45.7461 39.2666 46.0561 39.2666L46.0573 11.8894C45.747 11.8894 45.4378 11.9024 45.1286 11.9077Z" fill="#6BA43A"/>
<path d="M92.3331 53.9529C92.3198 53.7069 92.3049 53.461 92.2884 53.2152C92.2811 53.0925 92.2746 52.971 92.264 52.8467C92.2437 52.5578 92.2193 52.2682 92.1925 51.9793C92.1873 51.9042 92.1795 51.8298 92.173 51.7547C92.1416 51.4316 92.1073 51.1087 92.0703 50.7862C92.0662 50.7602 92.0638 50.7342 92.0609 50.7082C92.0589 50.696 92.0581 50.683 92.056 50.6712C92.0134 50.3231 91.9671 49.9749 91.9179 49.6272C91.6025 47.4272 91.1281 45.2529 90.4985 43.1215C90.4936 43.1068 90.4899 43.0938 90.4851 43.0808C90.3859 42.7506 90.2848 42.4219 90.1804 42.0937C90.167 42.0514 90.1519 42.0075 90.1389 41.9637C90.0414 41.6679 89.9431 41.3734 89.8408 41.078C89.7239 40.7422 89.6032 40.4077 89.4788 40.0746C89.4334 39.9531 89.387 39.832 89.3394 39.7114C89.1961 39.3339 89.0466 38.9587 88.8909 38.5861C88.8243 38.4228 88.7557 38.2611 88.687 38.0978C88.5968 37.8898 88.5058 37.6818 88.414 37.475C88.362 37.3588 88.31 37.241 88.256 37.124C88.1423 36.8765 88.0269 36.6297 87.9098 36.3838C87.8733 36.3099 87.8383 36.2335 87.8022 36.1592C87.6659 35.8777 87.5273 35.5973 87.3862 35.3182L87.3257 35.202C87.168 34.8949 87.0063 34.5866 86.8422 34.2827C86.8353 34.2725 86.8308 34.2607 86.8243 34.2502C86.0285 32.7871 85.1538 31.3682 84.204 30L64 50.2048C64.4558 51.5523 64.7591 52.9466 64.9043 54.3616H92.3498C92.3433 54.2235 92.3396 54.0878 92.3331 53.9533V53.9529Z" fill="#4D5A31"/>
<path d="M66.9741 52.5006C67.0132 52.9469 67.0101 53.3945 67.0262 53.8429C67.0434 54.2911 67.0749 54.7387 67.0688 55.1866C67.0066 60.5007 65.3511 65.6807 62.3116 70.0716C62.0573 70.4387 61.764 70.788 61.4885 71.1446C61.2143 71.5017 60.9632 71.8697 60.6678 72.2163L91.3294 97.6157C91.6225 97.2705 91.8958 96.9165 92.1802 96.5668C92.4646 96.2176 92.7547 95.8709 93.0305 95.5184C94.9004 93.1342 96.6052 90.6281 98.1332 88.0172C98.1935 87.9152 98.2503 87.8142 98.3083 87.7136C98.4918 87.3969 98.6703 87.0782 98.8494 86.7596C99.0058 86.4747 99.1623 86.1904 99.3126 85.9038C99.3883 85.7669 99.4629 85.6241 99.5356 85.4869C105.127 74.8812 107.541 69.0192 107 57.5C106.979 57.0539 100.53 54.446 100.5 54C100.47 53.554 96.1239 52.679 101.5 50L66.9739 52.4988L66.9741 52.5006Z" fill="#6BA43A"/>
<path d="M100.244 3.75655C95.2352 -1.25251 87.1139 -1.25251 82.1056 3.75655C78.1097 7.75202 77.3111 13.7247 79.6909 18.5213L51.7526 46.4603C46.9561 44.0817 40.983 44.8792 36.9871 48.8743C31.978 53.8833 31.9788 62.0043 36.9871 67.0133C41.997 72.0224 50.1183 72.0208 55.1274 67.0129C59.1224 63.0175 59.9203 57.0448 57.5405 52.2474L85.4787 24.3091C90.2761 26.6877 96.248 25.8903 100.243 21.8944C105.252 16.8878 105.252 8.76561 100.244 3.75655Z" fill="#424143"/>
<path d="M34.3546 44C34.5662 43.8284 34.7813 43.6613 35 43.4989L34.9518 43.4181L20.877 20C20.2214 20.4264 19.5775 20.8708 18.9461 21.3327C17.5712 22.3479 16.2538 23.4392 15 24.6014L34.2788 43.9228L34.3546 44Z" fill="#93D500"/>
<path d="M41.2134 76.5339C40.9526 76.4554 40.6935 76.3713 40.4363 76.2817L40.3965 76.367L28.9377 101.17C29.6589 101.473 30.3884 101.756 31.1252 102.018C32.7377 102.585 34.3808 103.061 36.0467 103.445L41.1922 76.6399L41.2134 76.5339Z" fill="#93D500"/>
<path d="M137 131.555L114.124 108.679C120.527 99.6569 123.309 88.5589 121.918 77.5833C120.526 66.6076 115.063 56.5548 106.611 49.4163C98.1583 42.2777 87.3331 38.5741 76.2794 39.039C65.2256 39.5039 54.7497 44.1035 46.9266 51.9266C39.1035 59.7497 34.5039 70.2256 34.039 81.2794C33.5741 92.3331 37.2777 103.158 44.4163 111.611C51.5548 120.063 61.6076 125.526 72.5833 126.918C83.5589 128.309 94.6569 125.527 103.679 119.124L126.555 142L137 131.555ZM78.1547 112.577C72.3354 112.577 66.6469 110.852 61.8083 107.619C56.9698 104.386 53.1986 99.7905 50.9717 94.4142C48.7448 89.038 48.1621 83.1221 49.2974 77.4146C50.4327 71.7072 53.2349 66.4646 57.3497 62.3497C61.4646 58.2349 66.7072 55.4327 72.4146 54.2974C78.1221 53.1621 84.038 53.7448 89.4142 55.9717C94.7905 58.1986 99.3857 61.9698 102.619 66.8083C105.852 71.6469 107.577 77.3354 107.577 83.1547C107.577 90.9581 104.477 98.4418 98.9596 103.96C93.4418 109.477 85.9581 112.577 78.1547 112.577Z" fill="#424143"/>
</svg>
