<svg width="16" height="16" viewBox="0 0 16 16" fill="none" xmlns="http://www.w3.org/2000/svg"><g clip-path="url(#a)" fill="#1F2348"><path d="M1.952 12.367 0 12.487l.142-9.066 4.194-.259c.947-.058 1.692.13 2.236.562.543.425.839 1.017.885 1.778.053.862-.175 1.558-.685 2.09-.51.532-1.348.834-2.514.906l.658-.257c.431-.027.771.054 1.02.242.257.18.471.484.642.915l1.026 2.621-2.078.128L4.403 9.2c-.083-.24-.224-.398-.423-.47a1.606 1.606 0 0 0-.706-.097l-1.483.092L1.8 7.21l2.344-.144c.507-.031.881-.16 1.121-.387.25-.227.361-.544.336-.95-.022-.371-.15-.643-.38-.816-.232-.172-.58-.244-1.044-.215l-2.117.13-.108 7.538ZM15.046 3.25c.277 0 .555.12.746.362a.969.969 0 0 1-.147 1.35l-3.16 2.54 3.154 2.539c.41.329.48.938.148 1.35a.949.949 0 0 1-1.34.147l-4.087-3.29a.951.951 0 0 1-.36-.752.96.96 0 0 1 .36-.752l4.086-3.291a.988.988 0 0 1 .6-.203Z"/></g><defs><clipPath id="a"><path fill="#fff" d="M0 0h16v16H0z"/></clipPath></defs></svg>
