<svg width="166" height="147" viewBox="0 0 166 147" fill="none" xmlns="http://www.w3.org/2000/svg"><path d="M163.664 66.61 129.186 6.89A13.797 13.797 0 0 0 117.234 0H48.278a13.799 13.799 0 0 0-11.93 6.89l-34.5 59.72a13.774 13.774 0 0 0 0 13.78l34.478 59.719A13.785 13.785 0 0 0 48.278 147h68.956a13.785 13.785 0 0 0 11.929-6.891l34.478-59.718a13.772 13.772 0 0 0 .023-13.782Z" fill="url(#a)"/><path d="M99.84 83.895c0-9.61-5.76-12.905-17.278-14.277-8.228-1.099-9.873-3.295-9.873-7.14 0-3.844 2.742-6.315 8.227-6.315 4.937 0 7.68 1.648 9.05 5.766.275.824 1.098 1.373 1.92 1.373h4.388c1.098 0 1.92-.824 1.92-1.922v-.184c0-.06-.005-.12-.016-.18-1.074-5.703-5.576-10.166-11.414-11.058-.513-.079-.911-.508-.911-1.026v-5.673c0-1.072-.784-1.883-2.097-2.176a.9.9 0 0 0-.196-.021h-4.015c-1.07 0-1.88.785-2.174 2.1a.901.901 0 0 0-.02.196v5.34c0 .502-.373.923-.866 1.01-7.726 1.357-12.572 6.7-12.572 13.32 0 9.06 5.484 12.63 17.003 14.003 7.68 1.372 10.148 3.02 10.148 7.413 0 4.394-3.84 7.413-9.05 7.413-7.132 0-9.6-3.02-10.423-7.139-.273-1.097-1.096-1.647-1.919-1.647h-4.663c-1.096 0-1.92.824-1.92 1.922v.196c0 .052.005.106.014.158 1.081 6.605 5.23 11.417 13.674 12.959.486.088.848.507.848 1v5.731c0 1.071.784 1.882 2.097 2.175.064.015.13.021.196.021h4.015c1.071 0 1.88-.785 2.174-2.099a.894.894 0 0 0 .02-.196v-5.644c0-.489.355-.903.833-1.003 7.763-1.613 12.88-7.236 12.88-14.396Z" fill="url(#b)"/><path d="M68.613 112.009a.88.88 0 0 0-.216-.112c-21.316-7.732-32.232-31.57-24.293-52.675C48.218 47.69 57.27 38.904 68.513 34.786c1.097-.549 1.645-1.373 1.645-2.746v-3.844c0-1.058-.508-1.86-1.526-2.164a.81.81 0 0 0-.242-.031c-.223.003-.534.022-.774.136-.145.069-.281.163-.434.212-25.906 8.328-40.057 35.972-31.854 61.978 4.928 15.351 16.692 27.144 32.015 32.101.048.015.096.035.142.056.982.451 1.95.03 2.313-.867.069-.169.169-.324.25-.486.11-.217.11-.472.11-.876v-3.845c0-.79-.757-1.832-1.545-2.401Zm29.041-85.712a1.319 1.319 0 0 1-.136-.055c-.984-.452-1.953-.032-2.317.867-.068.168-.167.323-.25.485-.11.216-.11.472-.11.877v3.844c0 1.054.758 2.107 1.546 2.676.066.047.14.084.216.112 21.316 7.732 32.232 31.57 24.293 52.675-4.114 11.532-13.165 20.318-24.409 24.436-1.097.549-1.645 1.373-1.645 2.746v3.844c0 1.058.508 1.861 1.526 2.164a.79.79 0 0 0 .242.031c.223-.003.534-.022.774-.136.145-.069.281-.163.434-.212 25.906-8.328 40.057-35.972 31.854-61.978-4.929-15.626-16.967-27.42-32.017-32.376Z" fill="url(#c)"/><defs><radialGradient id="a" cx="0" cy="0" r="1" gradientUnits="userSpaceOnUse" gradientTransform="matrix(165.54 0 0 165.421 124.52 145.094)"><stop stop-color="#EC991C"/><stop offset="1" stop-color="#E9B213"/></radialGradient><radialGradient id="b" cx="0" cy="0" r="1" gradientUnits="userSpaceOnUse" gradientTransform="matrix(-25.50388 45.4641 -39.14802 -21.96076 95.289 51.343)"><stop offset=".188" stop-color="#fff"/><stop offset=".613" stop-color="#fff" stop-opacity=".857"/><stop offset="1" stop-color="#fff" stop-opacity=".6"/></radialGradient><radialGradient id="c" cx="0" cy="0" r="1" gradientUnits="userSpaceOnUse" gradientTransform="rotate(136.468 51.733 44.285) scale(94.7665 95.4942)"><stop offset=".188" stop-color="#fff"/><stop offset=".613" stop-color="#fff" stop-opacity=".857"/><stop offset="1" stop-color="#fff" stop-opacity=".6"/></radialGradient></defs></svg>
