<svg width="295" height="263" viewBox="0 0 295 263" fill="none" xmlns="http://www.w3.org/2000/svg"><g clip-path="url(#a)"><path d="M291.717 119.172 230.253 12.328C225.828 4.685 217.715 0 208.946 0H86.018a24.51 24.51 0 0 0-21.266 12.328L3.288 119.172a24.753 24.753 0 0 0 0 24.656l61.464 106.844A24.51 24.51 0 0 0 86.018 263h122.928a24.51 24.51 0 0 0 21.266-12.328l61.464-106.844a24.655 24.655 0 0 0 .041-24.656Z" fill="url(#b)"/><path fill-rule="evenodd" clip-rule="evenodd" d="M188.915 49.001 224.997 49l-53.474 90.287c11.432 7.181 19.032 19.904 19.032 34.402 0 22.42-18.175 40.595-40.595 40.595-22.42 0-40.595-18.175-40.595-40.595 0-12.512 5.66-23.702 14.56-31.149L70 51.493h36.085l40.584 60.877 42.246-63.369ZM149.96 197.284c13.031 0 23.595-10.564 23.595-23.595 0-13.032-10.564-23.596-23.595-23.596-13.031 0-23.595 10.564-23.595 23.596 0 13.031 10.564 23.595 23.595 23.595Z" fill="url(#c)"/></g><defs><radialGradient id="b" cx="0" cy="0" r="1" gradientUnits="userSpaceOnUse" gradientTransform="matrix(295.101 0 0 295.951 221.922 259.575)"><stop stop-color="#EC991C"/><stop offset="1" stop-color="#E9B213"/></radialGradient><radialGradient id="c" cx="0" cy="0" r="1" gradientUnits="userSpaceOnUse" gradientTransform="rotate(132.86 87.088 81.147) scale(158.154 159.133)"><stop offset=".188" stop-color="#fff"/><stop offset=".613" stop-color="#fff" stop-opacity=".857"/><stop offset="1" stop-color="#fff" stop-opacity=".6"/></radialGradient><clipPath id="a"><path fill="#fff" d="M0 0h295v263H0z"/></clipPath></defs></svg>
