<svg width="187" height="79" viewBox="0 0 187 79" fill="none" xmlns="http://www.w3.org/2000/svg"><path d="m133.238 18.255.274.183c3.226 2.136 5.538 5.065 7.06 8.605.365.549.122.854-.609 1.037l-1.236.317c-2.794.722-5.012 1.329-7.77 2.05l-1.572.412c-.567.14-.723.081-1.325-.607l-.085-.098c-.859-.976-1.503-1.628-2.641-2.21l-.22-.108c-3.833-1.892-7.546-1.343-11.014.915-4.139 2.685-6.269 6.652-6.208 11.595.061 4.881 3.408 8.909 8.216 9.58 4.138.55 7.607-.915 10.345-4.027.548-.672 1.035-1.404 1.643-2.258h-11.745c-1.278 0-1.582-.794-1.156-1.831l.211-.498c.782-1.825 1.995-4.447 2.783-5.947l.172-.323c.21-.366.638-.86 1.459-.86h19.585c.879-2.794 2.306-5.435 4.21-7.933 4.442-5.858 9.798-8.91 17.039-10.19 6.208-1.1 12.05-.489 17.344 3.111 4.808 3.296 7.79 7.75 8.581 13.608 1.034 8.239-1.339 14.951-6.998 20.687-4.017 4.089-8.946 6.652-14.606 7.811-1.643.305-3.286.366-4.868.55-5.538-.123-10.589-1.71-14.849-5.37-2.996-2.598-5.06-5.79-6.086-9.505a25.62 25.62 0 0 1-2.556 4.134c-4.381 5.798-10.102 9.398-17.343 10.374-5.964.794-11.502-.366-16.371-4.027-4.503-3.418-7.059-7.933-7.729-13.547-.79-6.652 1.157-12.632 5.173-17.88 4.321-5.675 10.042-9.275 17.04-10.557 5.615-1.018 10.994-.39 15.852 2.806Zm28.95 8.744-.195.044c-5.66 1.281-9.311 4.881-10.65 10.617-1.095 4.76 1.217 9.581 5.599 11.534 3.347 1.464 6.694 1.281 9.919-.367 4.808-2.501 7.425-6.407 7.729-11.655-.061-.793-.061-1.403-.183-2.014-1.082-5.973-6.509-9.381-12.219-8.16Z" fill="#00ACD7"/><path d="M12.096 59 0 16.76h14.08l5.952 31.872 6.656-31.872h11.52l6.976 31.68 5.824-31.68h13.568L52.48 59H38.4l-4.096-18.048-1.728-10.56h-.192l-1.728 10.56L26.56 59H12.096Zm67.186-42.88c4.011 0 7.574.555 10.689 1.664 3.114 1.067 5.845 2.71 8.191 4.928l-5.696 8.384c-1.92-1.621-3.967-2.88-6.143-3.776-2.134-.939-4.502-1.408-7.104-1.408-1.323 0-2.39.128-3.2.384-.811.256-1.409.619-1.793 1.088a2.29 2.29 0 0 0-.511 1.472c0 .683.405 1.237 1.215 1.664.854.427 2.027.81 3.52 1.152l6.4 1.472c4.267.981 7.446 2.432 9.537 4.352 2.09 1.877 3.135 4.459 3.135 7.744 0 3.2-.81 5.867-2.431 8-1.58 2.133-3.755 3.733-6.528 4.8-2.774 1.067-5.91 1.6-9.409 1.6a39.5 39.5 0 0 1-8.127-.832c-2.603-.555-4.993-1.344-7.169-2.368-2.175-1.067-4.053-2.325-5.631-3.776l5.632-8.64c1.151 1.11 2.56 2.112 4.223 3.008a27.41 27.41 0 0 0 5.313 2.048c1.877.512 3.69.768 5.44.768 1.237 0 2.24-.107 3.008-.32.81-.256 1.386-.597 1.727-1.024.342-.427.513-.939.513-1.536 0-.725-.278-1.301-.832-1.728-.555-.47-1.6-.875-3.136-1.216l-7.04-1.6c-2.305-.512-4.438-1.216-6.4-2.112-1.963-.896-3.542-2.133-4.736-3.712-1.153-1.621-1.728-3.733-1.728-6.336 0-2.773.746-5.227 2.24-7.36 1.493-2.133 3.669-3.797 6.527-4.992 2.86-1.195 6.294-1.792 10.305-1.792Z" fill="#00ACD7"/></svg>
